<svg width="73" height="88" viewBox="0 0 73 88" fill="none" xmlns="http://www.w3.org/2000/svg">
<path d="M28.784 0C24.3658 0 20.784 3.58172 20.784 8C20.784 12.4183 24.3658 16 28.784 16C44.248 16 56.784 28.536 56.784 44C56.784 59.464 44.248 72 28.784 72C22.9031 72 17.3147 70.1917 12.6244 66.8699C9.01884 64.3162 4.02582 65.169 1.47218 68.7746C-1.08145 72.3801 -0.228682 77.3732 3.37689 79.9268C10.749 85.148 19.5629 88 28.784 88C53.0846 88 72.784 68.3005 72.784 44C72.784 19.6995 53.0846 0 28.784 0Z" fill="#FBD34B"/>
</svg>
